Coordinates
version=1
nRows=10
nColumns=40
inDegrees=yes

Units are S.I. units (second, meters, Newtons, ...)
If the header above contains a line with 'inDegrees', this indicates whether rotational values are in degrees (yes) or radians (no).

endheader
time	pelvis_tilt	pelvis_list	pelvis_rotation	pelvis_tx	pelvis_ty	pelvis_tz	hip_flexion_r	hip_adduction_r	hip_rotation_r	knee_angle_r	knee_angle_r_beta	ankle_angle_r	subtalar_angle_r	mtp_angle_r	hip_flexion_l	hip_adduction_l	hip_rotation_l	knee_angle_l	knee_angle_l_beta	ankle_angle_l	subtalar_angle_l	mtp_angle_l	lumbar_extension	lumbar_bending	lumbar_rotation	arm_flex_r	arm_add_r	arm_rot_r	elbow_flex_r	pro_sup_r	wrist_flex_r	wrist_dev_r	arm_flex_l	arm_add_l	arm_rot_l	elbow_flex_l	pro_sup_l	wrist_flex_l	wrist_dev_l
      0.39000000	     14.01236516	      4.13431999	     -4.07262571	      0.28370897	      0.97098084	     -0.23636206	     12.69080602	     -6.14749507	     -4.46795245	     32.98500377	      0.57569692	      5.40474238	      0.00000000	      0.00000000	    -24.44802049	      8.38856417	     -3.06429029	      3.32719354	      0.05807048	     12.54328752	      0.00000000	      0.00000000	    -29.48859911	     -3.88237089	      0.09053121	     -2.59332760	     -2.35071132	     -3.70924547	     35.67584740	     89.46365088	    -15.15294549	      5.18731041	     17.00836569	     -3.87592309	     10.32569966	     51.54625485	     89.53549146	    -21.00060411	      1.18066379
      0.40000000	     14.12395814	      4.05178656	     -3.40123124	      0.29873200	      0.96879211	     -0.23722684	     12.70409038	     -5.96198463	     -5.49698953	     28.75350002	      0.50184325	      5.06036136	      0.00000000	      0.00000000	    -25.78757161	      8.12496203	     -2.68740787	      2.97176053	      0.05186701	     13.04592239	      0.00000000	      0.00000000	    -29.71017050	     -3.37249114	      0.06741710	     -3.57657612	     -2.26008536	     -5.07576143	     34.99767149	     89.45514304	    -15.58781820	      4.87834513	     18.14495397	     -3.91416227	     10.85160866	     53.86036238	     89.53739119	    -20.03359815	      1.38345069
      0.41000000	     14.02428465	      4.12606336	     -2.90486334	      0.31387757	      0.96588467	     -0.23765860	     12.97235040	     -5.81992430	     -5.96526543	     24.68620101	      0.43085549	      4.74187214	      0.00000000	      0.00000000	    -26.82553146	      8.03627509	     -2.44158826	      2.75485255	      0.04808125	     13.58243720	      0.00000000	      0.00000000	    -29.66002106	     -3.10495538	      0.13985267	     -4.56001257	     -2.10674438	     -6.43098347	     34.29002236	     89.44557976	    -16.08308364	      4.54506942	     19.18919117	     -3.97234612	     11.31734545	     56.21102996	     89.53756967	    -19.12702950	      1.47830992
      0.42000000	     13.62207629	      4.51439979	     -2.71601660	      0.32890532	      0.96217570	     -0.23752122	     13.71641923	     -5.88774883	     -5.49273122	     20.97562758	      0.36609376	      4.33197952	      0.00000000	      0.00000000	    -27.42139551	      8.34699958	     -2.28913426	      2.72628195	      0.04758260	     14.12281374	      0.00000000	      0.00000000	    -29.24829251	     -3.30090817	      0.20035179	     -5.37753786	     -1.89954948	     -7.62196643	     33.39999402	     89.43830517	    -16.45721100	      4.46998826	     20.08011640	     -4.09563767	     11.59958654	     58.57271779	     89.53519609	    -18.88208116	      1.13097676
      0.43000000	     13.37807859	      4.75495234	     -2.37524773	      0.34427725	      0.95864020	     -0.23750602	     14.10451049	     -5.86155753	     -5.04066851	     17.39074161	      0.30352570	      3.60419468	      0.00000000	      0.00000000	    -28.19618956	      8.42849432	     -2.20075407	      2.75347990	      0.04805729	     14.64413121	      0.00000000	      0.00000000	    -29.02219008	     -3.28583792	      0.23239052	     -6.25551631	     -1.69202980	     -8.80148370	     32.66429857	     89.44086961	    -16.89071074	      4.17467548	     20.93856719	     -4.18679913	     11.89533679	     60.90918880	     89.53841198	    -18.66697716	      0.69498322
      0.44000000	     12.95185458	      5.12466637	     -2.07322096	      0.35984219	      0.95474006	     -0.23740064	     14.68610291	     -5.99927012	     -4.19959846	     14.22079522	      0.24819970	      2.94583201	      0.00000000	      0.00000000	    -28.69834552	      8.61606678	     -1.97595941	      2.96870665	      0.05181371	     15.16265987	      0.00000000	      0.00000000	    -28.54241812	     -3.42869900	      0.22942714	     -7.05654721	     -1.47878746	     -9.78049438	     31.78551834	     89.43792088	    -17.27466680	      4.00055295	     21.71909781	     -4.30463718	     12.18524284	     63.11410983	     89.53729833	    -18.61640648	      0.14162162
      0.45000000	     12.45666279	      5.44952217	     -1.72849188	      0.37568165	      0.95082034	     -0.23734125	     15.30015898	     -6.15958230	     -3.26708120	     11.54800685	      0.20155074	      2.21930922	      0.00000000	      0.00000000	    -29.07783528	      8.72143766	     -1.82575197	      3.33033412	      0.05812530	     15.60868776	      0.00000000	      0.00000000	    -27.97632037	     -3.50559262	      0.13074207	     -7.78915306	     -1.28796147	    -10.54247154	     30.84724853	     89.43948549	    -17.71494843	      3.69798898	     22.34095201	     -4.43058927	     12.35572715	     65.26606371	     89.53601968	    -18.86285385	     -0.73795555
      0.46000000	     11.87687423	      5.81448358	     -1.39701632	      0.39172196	      0.94683406	     -0.23716521	     16.02793499	     -6.41685400	     -2.22958884	      9.51175157	      0.16601138	      1.72804300	      0.00000000	      0.00000000	    -29.29813344	      8.84069503	     -1.57437434	      3.86483218	      0.06745405	     16.02661352	      0.00000000	      0.00000000	    -27.27045391	     -3.66546291	      0.06362649	     -8.49209884	     -1.09988730	    -11.15380328	     29.88650598	     89.43930379	    -17.95716922	      3.73470624	     22.92831706	     -4.55753391	     12.53029297	     67.26175601	     89.53503617	    -18.99418266	     -1.37237256
      0.47000000	     11.31464669	      6.06842623	     -1.10597141	      0.40795688	      0.94322690	     -0.23704160	     16.73616992	     -6.61268333	     -1.37944322	      8.09492732	      0.14128313	      1.05384153	      0.00000000	      0.00000000	    -29.43923345	      8.85266978	     -1.40962558	      4.62734357	      0.08076238	     16.21833708	      0.00000000	      0.00000000	    -26.62382324	     -3.68855691	     -0.09934849	     -9.05776053	     -0.98888211	    -11.56662508	     28.95015560	     89.44561615	    -18.19469536	      3.71105391	     23.25211398	     -4.68595345	     12.40679545	     69.32308605	     89.53432132	    -19.40596814	     -2.34232249
      0.48000000	     10.75806319	      6.15339493	     -0.76383819	      0.42445995	      0.93981800	     -0.23678237	     17.45292955	     -6.67463799	     -0.86902933	      7.42278507	      0.12955204	      0.77707994	      0.00000000	      0.00000000	    -29.54326777	      8.64518026	     -1.33535982	      5.49294241	      0.09586993	     16.26559819	      0.00000000	      0.00000000	    -25.94252205	     -3.59323725	     -0.11916285	     -9.60761000	     -0.88167830	    -11.81795142	     27.92870103	     89.44665252	    -18.33185027	      3.83776023	     23.60979102	     -4.82074728	     12.53678168	     71.19357808	     89.52308340	    -19.64746301	     -3.08808821
